<?xml version="1.0" encoding="UTF-8"?>
<svg xmlns="http://www.w3.org/2000/svg" xmlns:xlink="http://www.w3.org/1999/xlink" width="190px" height="50px" viewBox="0 0 190 50" version="1.1">
<g id="surface1">
<path style=" stroke:none;fill-rule:nonzero;fill:rgb(9.803922%,15.294118%,34.901962%);fill-opacity:1;" d="M 23.898438 11.359375 C 27.230469 11.359375 30.558594 11.359375 33.992188 11.359375 C 33.992188 17.964844 33.992188 24.574219 33.992188 31.382812 C 27.429688 31.382812 20.863281 31.382812 14.101562 31.382812 C 14.101562 34.125 14.101562 36.867188 14.101562 39.695312 C 10.722656 39.734375 7.339844 39.773438 3.859375 39.8125 C 3.859375 33.203125 3.859375 26.597656 3.859375 19.789062 C 10.421875 19.789062 16.988281 19.789062 23.75 19.789062 C 23.75 17.625 23.75 15.460938 23.75 13.230469 C 23.800781 12.613281 23.847656 11.996094 23.898438 11.359375 Z M 23.898438 11.359375 "/>
<path style=" stroke:none;fill-rule:nonzero;fill:rgb(9.803922%,15.294118%,34.509805%);fill-opacity:1;" d="M 61.75 14.167969 C 61.664062 15.199219 61.398438 16.203125 61.132812 17.214844 C 61.085938 17.390625 61.039062 17.570312 60.992188 17.75 C 60.871094 18.21875 60.75 18.683594 60.628906 19.152344 C 60.433594 19.902344 60.238281 20.652344 60.042969 21.40625 C 59.972656 21.667969 59.90625 21.929688 59.835938 22.191406 C 59.792969 22.351562 59.753906 22.511719 59.710938 22.667969 C 59.675781 22.808594 59.640625 22.949219 59.601562 23.09375 C 59.515625 23.402344 59.515625 23.402344 59.523438 23.652344 C 59.585938 23.589844 59.644531 23.523438 59.710938 23.457031 C 60.90625 22.210938 62.203125 21.082031 64.273438 20.84375 C 65.519531 20.757812 66.5 20.898438 67.5 21.5 C 68.328125 22.097656 68.695312 22.96875 68.753906 23.832031 C 68.777344 25.050781 68.613281 26.195312 68.335938 27.394531 C 68.296875 27.574219 68.257812 27.757812 68.21875 27.9375 C 68.03125 28.78125 67.835938 29.621094 67.640625 30.464844 C 67.558594 30.824219 67.476562 31.183594 67.394531 31.542969 C 67.335938 31.792969 67.277344 32.042969 67.21875 32.292969 C 66.828125 33.832031 66.828125 33.832031 67.09375 35.363281 C 67.402344 35.496094 67.402344 35.496094 67.769531 35.566406 C 67.988281 35.617188 68.207031 35.664062 68.429688 35.714844 C 68.378906 36.101562 68.332031 36.488281 68.28125 36.886719 C 65.980469 36.886719 63.675781 36.886719 61.304688 36.886719 C 61.644531 35.136719 61.644531 35.136719 61.824219 34.386719 C 61.84375 34.300781 61.863281 34.214844 61.882812 34.125 C 61.925781 33.945312 61.96875 33.761719 62.011719 33.578125 C 62.082031 33.289062 62.148438 33 62.21875 32.710938 C 62.335938 32.199219 62.457031 31.691406 62.578125 31.179688 C 62.769531 30.363281 62.960938 29.542969 63.152344 28.726562 C 63.21875 28.441406 63.285156 28.160156 63.355469 27.875 C 63.394531 27.699219 63.4375 27.523438 63.476562 27.347656 C 63.53125 27.121094 63.53125 27.121094 63.585938 26.890625 C 63.738281 26.191406 63.851562 25.519531 63.867188 24.808594 C 63.867188 24.671875 63.871094 24.535156 63.875 24.390625 C 63.824219 23.96875 63.714844 23.75 63.382812 23.417969 C 62.914062 23.3125 62.789062 23.296875 62.34375 23.417969 C 60.378906 24.484375 59.3125 26.117188 58.8125 27.914062 C 58.789062 28 58.761719 28.089844 58.738281 28.179688 C 58.332031 29.679688 58.023438 31.191406 57.695312 32.699219 C 57.550781 33.375 57.402344 34.046875 57.253906 34.722656 C 57.203125 34.957031 57.152344 35.191406 57.101562 35.421875 C 57.070312 35.5625 57.039062 35.707031 57.007812 35.851562 C 56.980469 35.972656 56.957031 36.097656 56.925781 36.226562 C 56.851562 36.535156 56.851562 36.535156 56.703125 36.886719 C 55.136719 36.886719 53.566406 36.886719 51.953125 36.886719 C 52.121094 35.4375 52.121094 35.4375 52.269531 34.792969 C 52.304688 34.644531 52.339844 34.5 52.371094 34.347656 C 52.410156 34.191406 52.445312 34.035156 52.484375 33.878906 C 52.523438 33.707031 52.5625 33.539062 52.601562 33.371094 C 52.6875 33.007812 52.769531 32.644531 52.855469 32.285156 C 52.988281 31.710938 53.121094 31.136719 53.253906 30.5625 C 53.609375 29.03125 53.964844 27.503906 54.320312 25.972656 C 54.558594 24.96875 54.789062 23.960938 55.023438 22.957031 C 55.15625 22.386719 55.289062 21.820312 55.421875 21.25 C 55.503906 20.894531 55.585938 20.539062 55.667969 20.179688 C 55.707031 20.019531 55.746094 19.855469 55.785156 19.691406 C 56.308594 17.902344 56.308594 17.902344 56.128906 16.117188 C 55.90625 15.863281 55.714844 15.8125 55.347656 15.71875 C 55.0625 15.648438 55.0625 15.648438 54.773438 15.574219 C 54.824219 15.1875 54.871094 14.800781 54.921875 14.402344 C 57.199219 14.257812 59.464844 14.125 61.75 14.167969 Z M 61.75 14.167969 "/>
<path style=" stroke:none;fill-rule:nonzero;fill:rgb(9.803922%,15.294118%,34.509805%);fill-opacity:1;" d="M 122.570312 21.40625 C 123.746094 22.304688 123.917969 23.355469 123.945312 24.589844 C 123.921875 24.894531 123.890625 25.191406 123.847656 25.492188 C 123.835938 25.578125 123.820312 25.667969 123.808594 25.761719 C 123.566406 27.332031 123.15625 28.882812 122.78125 30.4375 C 122.109375 32.707031 122.109375 32.707031 122.164062 35.011719 C 122.554688 35.394531 122.914062 35.558594 123.5 35.714844 C 123.519531 36.488281 123.519531 36.488281 123.351562 36.886719 C 121.097656 36.886719 118.84375 36.886719 116.523438 36.886719 C 116.613281 36.164062 116.707031 35.496094 116.875 34.789062 C 116.894531 34.707031 116.914062 34.621094 116.933594 34.535156 C 116.976562 34.355469 117.019531 34.171875 117.0625 33.992188 C 117.132812 33.703125 117.199219 33.417969 117.265625 33.128906 C 117.386719 32.621094 117.507812 32.113281 117.628906 31.605469 C 117.820312 30.792969 118.011719 29.980469 118.203125 29.167969 C 118.269531 28.886719 118.335938 28.609375 118.402344 28.328125 C 119.152344 25.90625 119.152344 25.90625 118.75 23.535156 C 118.308594 23.363281 118.054688 23.367188 117.5625 23.417969 C 115.75 24.125 114.808594 25.746094 114.148438 27.167969 C 113.96875 27.675781 113.84375 28.183594 113.730469 28.703125 C 113.695312 28.851562 113.664062 28.996094 113.625 29.148438 C 113.523438 29.589844 113.425781 30.03125 113.328125 30.472656 C 113.25 30.835938 113.167969 31.195312 113.089844 31.558594 C 112.695312 33.332031 112.308594 35.109375 111.921875 36.886719 C 110.304688 36.886719 108.6875 36.886719 107.023438 36.886719 C 107.363281 35.003906 107.363281 35.003906 107.570312 34.132812 C 107.605469 33.980469 107.605469 33.980469 107.640625 33.832031 C 107.6875 33.621094 107.738281 33.40625 107.785156 33.195312 C 107.867188 32.859375 107.941406 32.523438 108.019531 32.1875 C 108.242188 31.230469 108.460938 30.273438 108.6875 29.320312 C 108.824219 28.730469 108.957031 28.144531 109.09375 27.554688 C 109.144531 27.332031 109.195312 27.113281 109.25 26.890625 C 109.964844 24.6875 109.964844 24.6875 109.546875 22.597656 C 109.261719 22.46875 109.261719 22.46875 108.933594 22.394531 C 108.746094 22.347656 108.554688 22.296875 108.359375 22.25 C 108.457031 21.863281 108.554688 21.476562 108.65625 21.078125 C 110.734375 20.9375 112.808594 20.949219 114.890625 20.960938 C 114.8125 21.609375 114.695312 22.238281 114.511719 22.878906 C 114.347656 23.4375 114.347656 23.4375 114.296875 24.003906 C 114.382812 23.917969 114.472656 23.832031 114.5625 23.742188 C 114.679688 23.628906 114.796875 23.515625 114.917969 23.398438 C 115.035156 23.285156 115.148438 23.171875 115.269531 23.054688 C 115.621094 22.730469 115.984375 22.429688 116.375 22.132812 C 116.457031 22.066406 116.542969 22.003906 116.628906 21.9375 C 118.289062 20.75 120.648438 20.40625 122.570312 21.40625 Z M 122.570312 21.40625 "/>
<path style=" stroke:none;fill-rule:nonzero;fill:rgb(9.803922%,15.294118%,34.509805%);fill-opacity:1;" d="M 100.789062 14.285156 C 100.292969 17.136719 100.292969 17.136719 100.046875 17.332031 C 99.773438 17.339844 99.496094 17.339844 99.222656 17.335938 C 99.070312 17.335938 98.921875 17.335938 98.765625 17.335938 C 98.648438 17.332031 98.535156 17.332031 98.414062 17.332031 C 98.351562 17.21875 98.351562 17.21875 98.289062 17.105469 C 98.207031 16.957031 98.207031 16.957031 98.125 16.8125 C 98.046875 16.664062 98.046875 16.664062 97.964844 16.519531 C 97.84375 16.28125 97.84375 16.28125 97.671875 16.160156 C 97.179688 16.117188 96.886719 16.105469 96.464844 16.320312 C 95.621094 17.25 95.394531 18.410156 95.109375 19.511719 C 95.070312 19.664062 95.03125 19.8125 94.992188 19.96875 C 94.894531 20.339844 94.796875 20.707031 94.703125 21.078125 C 95.730469 21.078125 96.761719 21.078125 97.820312 21.078125 C 97.671875 21.773438 97.527344 22.46875 97.375 23.183594 C 95.832031 23.242188 95.832031 23.242188 94.257812 23.300781 C 94.171875 23.691406 94.085938 24.078125 93.996094 24.476562 C 93.710938 25.769531 93.421875 27.058594 93.136719 28.351562 C 92.960938 29.132812 92.785156 29.914062 92.613281 30.695312 C 92.445312 31.453125 92.277344 32.207031 92.109375 32.964844 C 92.042969 33.25 91.980469 33.535156 91.917969 33.824219 C 91.617188 35.1875 91.304688 36.546875 90.90625 37.894531 C 90.875 37.992188 90.847656 38.089844 90.820312 38.1875 C 90.234375 40.089844 89.046875 42.042969 86.933594 43.15625 C 85.378906 43.824219 83.417969 44.164062 81.6875 43.792969 C 81.574219 43.753906 81.460938 43.714844 81.34375 43.675781 C 81.414062 43.023438 81.535156 42.425781 81.789062 41.804688 C 81.917969 41.808594 82.046875 41.8125 82.179688 41.820312 C 83.230469 41.847656 83.230469 41.847656 84.238281 41.648438 C 85.210938 40.824219 85.515625 39.664062 85.796875 38.589844 C 85.832031 38.453125 85.871094 38.316406 85.90625 38.171875 C 86.3125 36.667969 86.660156 35.152344 87.003906 33.640625 C 87.074219 33.34375 87.140625 33.046875 87.210938 32.75 C 87.386719 31.980469 87.5625 31.210938 87.738281 30.441406 C 88.023438 29.199219 88.308594 27.957031 88.59375 26.714844 C 88.691406 26.28125 88.792969 25.851562 88.890625 25.417969 C 88.949219 25.15625 89.011719 24.894531 89.070312 24.632812 C 89.097656 24.511719 89.125 24.390625 89.152344 24.269531 C 89.179688 24.160156 89.203125 24.050781 89.230469 23.9375 C 89.25 23.84375 89.273438 23.746094 89.292969 23.648438 C 89.359375 23.417969 89.359375 23.417969 89.507812 23.183594 C 88.871094 23.183594 88.234375 23.183594 87.578125 23.183594 C 87.628906 22.796875 87.675781 22.414062 87.726562 22.015625 C 88.097656 21.9375 88.46875 21.863281 88.84375 21.785156 C 89.289062 21.636719 89.398438 21.515625 89.65625 21.195312 C 89.808594 20.859375 89.808594 20.859375 89.921875 20.484375 C 89.96875 20.347656 90.015625 20.207031 90.066406 20.066406 C 90.113281 19.917969 90.164062 19.773438 90.210938 19.621094 C 90.859375 17.773438 91.632812 16.046875 93.765625 14.953125 C 95.886719 14.046875 98.433594 13.871094 100.789062 14.285156 Z M 100.789062 14.285156 "/>
<path style=" stroke:none;fill-rule:nonzero;fill:rgb(9.803922%,15.294118%,34.509805%);fill-opacity:1;" d="M 156.511719 21.625 C 157.289062 22.125 157.707031 22.796875 157.835938 23.578125 C 157.855469 23.871094 157.859375 24.160156 157.855469 24.449219 C 157.851562 24.554688 157.851562 24.65625 157.851562 24.765625 C 157.808594 26.0625 157.316406 27.050781 156.15625 27.984375 C 153.816406 29.648438 150.402344 29.882812 147.398438 29.976562 C 147.382812 30.441406 147.371094 30.902344 147.359375 31.367188 C 147.355469 31.496094 147.351562 31.625 147.347656 31.761719 C 147.332031 32.75 147.46875 33.640625 148.363281 34.382812 C 149.375 34.695312 150.417969 34.648438 151.433594 34.359375 C 152.660156 33.921875 153.605469 33.195312 154.523438 32.4375 C 154.671875 32.316406 154.820312 32.199219 154.96875 32.085938 C 155.1875 32.273438 155.410156 32.460938 155.628906 32.648438 C 155.8125 32.804688 155.8125 32.804688 155.996094 32.964844 C 156.304688 33.253906 156.304688 33.253906 156.453125 33.605469 C 156.207031 33.886719 155.964844 34.128906 155.683594 34.382812 C 155.601562 34.457031 155.519531 34.527344 155.4375 34.605469 C 153.769531 36.070312 151.714844 36.992188 149.199219 37.144531 C 147.371094 37.191406 145.863281 36.851562 144.476562 35.910156 C 142.863281 34.433594 142.519531 32.589844 142.675781 30.695312 C 143.027344 27.46875 144.070312 24.449219 147.277344 22.261719 C 149.796875 20.777344 153.765625 20.117188 156.511719 21.625 Z M 149.914062 23.792969 C 148.929688 24.910156 147.84375 26.71875 147.84375 28.101562 C 149.425781 28.1875 151.054688 27.851562 152.296875 27.050781 C 153.234375 26.390625 153.699219 25.542969 153.832031 24.566406 C 153.855469 23.90625 153.828125 23.503906 153.335938 22.949219 C 153.023438 22.714844 152.832031 22.613281 152.40625 22.546875 C 151.332031 22.683594 150.597656 23.144531 149.914062 23.792969 Z M 149.914062 23.792969 "/>
<path style=" stroke:none;fill-rule:nonzero;fill:rgb(9.803922%,15.294118%,34.509805%);fill-opacity:1;" d="M 172.78125 21.546875 C 172.679688 22.039062 172.574219 22.535156 172.472656 23.027344 C 172.4375 23.195312 172.402344 23.363281 172.367188 23.53125 C 172.316406 23.773438 172.265625 24.015625 172.214844 24.253906 C 172.1875 24.402344 172.15625 24.546875 172.125 24.695312 C 172.039062 25.058594 172.039062 25.058594 171.890625 25.410156 C 171.15625 25.410156 170.421875 25.410156 169.664062 25.410156 C 169.394531 24.566406 169.394531 24.566406 169.3125 24.304688 C 169.109375 23.683594 168.910156 23.214844 168.21875 22.855469 C 167.429688 22.628906 166.828125 22.644531 166.0625 22.90625 C 165.488281 23.164062 165.25 23.371094 165.0625 23.886719 C 164.960938 24.609375 164.910156 25.304688 165.453125 25.921875 C 166.160156 26.582031 166.941406 27.117188 167.816406 27.632812 C 169.28125 28.503906 170.308594 29.460938 170.703125 30.914062 C 170.867188 32.460938 170.816406 33.933594 169.625 35.230469 C 168.386719 36.382812 166.804688 36.96875 164.914062 37.121094 C 162.527344 37.238281 160.066406 36.988281 157.789062 36.417969 C 157.875 35.5 158.082031 34.609375 158.316406 33.710938 C 158.351562 33.574219 158.386719 33.441406 158.421875 33.300781 C 158.507812 32.972656 158.59375 32.644531 158.679688 32.320312 C 159.414062 32.320312 160.148438 32.320312 160.90625 32.320312 C 160.964844 32.570312 161.023438 32.820312 161.082031 33.078125 C 161.273438 33.769531 161.457031 34.378906 162.09375 34.894531 C 162.796875 35.222656 163.363281 35.3125 164.171875 35.246094 C 164.851562 35.0625 165.359375 34.878906 165.804688 34.425781 C 166.238281 33.726562 166.234375 32.910156 166.027344 32.160156 C 165.527344 31.078125 164.203125 30.410156 163.09375 29.726562 C 161.773438 28.898438 160.933594 27.996094 160.488281 26.699219 C 160.367188 25.148438 160.5 23.71875 161.761719 22.457031 C 164.523438 20.109375 169.292969 20.664062 172.78125 21.546875 Z M 172.78125 21.546875 "/>
<path style=" stroke:none;fill-rule:nonzero;fill:rgb(9.803922%,15.294118%,34.509805%);fill-opacity:1;" d="M 127.164062 21.0625 C 127.410156 21.0625 127.652344 21.066406 127.898438 21.066406 C 128.089844 21.066406 128.089844 21.066406 128.285156 21.066406 C 128.699219 21.066406 129.109375 21.070312 129.519531 21.070312 C 129.800781 21.070312 130.078125 21.070312 130.355469 21.070312 C 131.039062 21.074219 131.722656 21.074219 132.40625 21.078125 C 132.546875 21.570312 132.605469 22.0625 132.652344 22.566406 C 132.660156 22.652344 132.671875 22.742188 132.679688 22.835938 C 132.707031 23.128906 132.734375 23.421875 132.765625 23.714844 C 132.785156 23.921875 132.804688 24.125 132.824219 24.332031 C 132.863281 24.761719 132.90625 25.195312 132.945312 25.625 C 133 26.175781 133.050781 26.722656 133.105469 27.273438 C 133.144531 27.695312 133.1875 28.121094 133.226562 28.546875 C 133.246094 28.75 133.265625 28.949219 133.285156 29.152344 C 133.394531 30.289062 133.476562 31.414062 133.445312 32.550781 C 133.542969 32.550781 133.640625 32.550781 133.742188 32.550781 C 133.789062 32.417969 133.789062 32.417969 133.839844 32.277344 C 134.109375 31.699219 134.484375 31.171875 134.855469 30.628906 C 137.320312 27.039062 137.320312 27.039062 138.046875 23.066406 C 137.832031 22.660156 137.707031 22.523438 137.203125 22.328125 C 137.089844 22.300781 136.976562 22.277344 136.859375 22.25 C 136.910156 21.863281 136.957031 21.476562 137.007812 21.078125 C 138.574219 21.078125 140.144531 21.078125 141.757812 21.078125 C 142.457031 22.183594 142.457031 22.183594 142.109375 23.074219 C 141.988281 23.355469 141.855469 23.632812 141.71875 23.910156 C 141.667969 24.015625 141.617188 24.121094 141.566406 24.230469 C 139.96875 27.425781 137.925781 30.46875 135.710938 33.425781 C 135.351562 33.90625 134.996094 34.390625 134.652344 34.878906 C 134.542969 35.03125 134.429688 35.1875 134.316406 35.339844 C 134.078125 35.664062 133.882812 35.964844 133.730469 36.324219 C 133.554688 36.695312 133.386719 36.863281 133 37.121094 C 132.621094 37.171875 132.621094 37.171875 132.195312 37.164062 C 132.042969 37.164062 131.894531 37.164062 131.734375 37.160156 C 131.5 37.15625 131.5 37.15625 131.257812 37.148438 C 131.097656 37.148438 130.9375 37.144531 130.769531 37.140625 C 130.375 37.136719 129.980469 37.128906 129.585938 37.121094 C 129.578125 37.054688 129.570312 36.992188 129.5625 36.925781 C 129.363281 35.363281 129.164062 33.800781 128.960938 32.238281 C 128.867188 31.484375 128.769531 30.730469 128.671875 29.972656 C 128.582031 29.242188 128.488281 28.515625 128.394531 27.785156 C 128.359375 27.507812 128.320312 27.230469 128.285156 26.953125 C 128.238281 26.5625 128.1875 26.171875 128.136719 25.78125 C 128.121094 25.667969 128.109375 25.554688 128.09375 25.4375 C 127.957031 23.847656 127.957031 23.847656 127.0625 22.484375 C 126.675781 22.316406 126.675781 22.316406 126.320312 22.25 C 126.339844 22.074219 126.363281 21.902344 126.386719 21.730469 C 126.398438 21.632812 126.410156 21.535156 126.421875 21.4375 C 126.503906 21.011719 126.585938 21.078125 127.164062 21.0625 Z M 127.164062 21.0625 "/>
<path style=" stroke:none;fill-rule:nonzero;fill:rgb(9.803922%,15.294118%,34.509805%);fill-opacity:1;" d="M 178.71875 17.214844 C 180.042969 17.214844 181.363281 17.214844 182.726562 17.214844 C 182.558594 18.53125 182.558594 18.53125 182.4375 19.027344 C 182.414062 19.132812 182.386719 19.242188 182.359375 19.351562 C 182.335938 19.457031 182.308594 19.5625 182.28125 19.671875 C 182.253906 19.78125 182.226562 19.890625 182.203125 20.003906 C 182.003906 20.8125 182.003906 20.8125 181.835938 21.078125 C 183.109375 21.078125 184.382812 21.078125 185.695312 21.078125 C 185.695312 21.898438 185.695312 21.898438 185.398438 23.183594 C 183.414062 23.242188 183.414062 23.242188 181.390625 23.300781 C 181.144531 24.296875 180.898438 25.292969 180.652344 26.285156 C 180.535156 26.746094 180.421875 27.210938 180.308594 27.671875 C 180.195312 28.117188 180.085938 28.566406 179.976562 29.011719 C 179.933594 29.183594 179.890625 29.351562 179.851562 29.519531 C 179.042969 32.066406 179.042969 32.066406 179.609375 34.542969 C 180.46875 34.597656 180.871094 34.503906 181.539062 34.074219 C 182.042969 33.714844 182.488281 33.375 182.835938 32.910156 C 182.898438 32.832031 182.960938 32.75 183.023438 32.667969 C 183.46875 32.667969 183.46875 32.667969 183.746094 32.878906 C 183.882812 33.019531 183.882812 33.019531 184.023438 33.160156 C 184.121094 33.25 184.214844 33.34375 184.3125 33.4375 C 184.507812 33.722656 184.507812 33.722656 184.515625 34.003906 C 184.296875 34.433594 183.933594 34.734375 183.535156 35.0625 C 183.453125 35.128906 183.371094 35.199219 183.289062 35.265625 C 181.875 36.425781 180.449219 37.09375 178.375 37.148438 C 177.132812 37.132812 176.167969 36.886719 175.265625 36.195312 C 174.125 35.105469 174.222656 33.546875 174.378906 32.214844 C 174.625 30.503906 175.101562 28.8125 175.523438 27.128906 C 175.644531 26.644531 175.761719 26.160156 175.878906 25.675781 C 176.078125 24.84375 176.285156 24.015625 176.492188 23.183594 C 175.804688 23.183594 175.121094 23.183594 174.414062 23.183594 C 174.464844 22.796875 174.511719 22.414062 174.5625 22.015625 C 175.039062 21.945312 175.039062 21.945312 175.519531 21.875 C 176.195312 21.703125 176.664062 21.453125 177.070312 20.992188 C 177.839844 19.773438 178.273438 18.53125 178.71875 17.214844 Z M 178.71875 17.214844 "/>
<path style=" stroke:none;fill-rule:nonzero;fill:rgb(9.803922%,15.294118%,34.509805%);fill-opacity:1;" d="M 86.242188 21.429688 C 86.140625 22.304688 85.9375 23.152344 85.714844 24.011719 C 85.660156 24.214844 85.660156 24.214844 85.609375 24.421875 C 85.523438 24.75 85.4375 25.082031 85.351562 25.410156 C 84.324219 25.410156 83.292969 25.410156 82.234375 25.410156 C 82.207031 24.980469 82.175781 24.546875 82.148438 24.117188 C 82.085938 23.65625 81.96875 23.273438 81.789062 22.832031 C 81.085938 22.714844 80.742188 22.671875 80.0625 22.886719 C 77.890625 24.042969 77.242188 26.6875 76.742188 28.570312 C 76.019531 31.46875 76.019531 31.46875 77.039062 34.214844 C 77.554688 34.582031 78.085938 34.585938 78.753906 34.574219 C 80.148438 34.453125 81.40625 33.640625 82.277344 32.816406 C 82.363281 32.730469 82.445312 32.640625 82.53125 32.550781 C 83.109375 32.726562 83.34375 32.988281 83.679688 33.386719 C 83.773438 33.492188 83.863281 33.601562 83.957031 33.710938 C 84.058594 33.832031 84.058594 33.832031 84.164062 33.957031 C 82.761719 35.589844 80.753906 36.675781 78.300781 37.089844 C 76.507812 37.191406 74.902344 37.152344 73.476562 36.191406 C 71.761719 34.792969 71.488281 32.796875 71.523438 30.945312 C 71.621094 28.222656 72.554688 25.300781 74.8125 23.183594 C 74.898438 23.101562 74.988281 23.015625 75.078125 22.929688 C 76.230469 21.929688 77.894531 21.238281 79.5625 20.960938 C 79.722656 20.933594 79.882812 20.90625 80.046875 20.878906 C 82.125 20.742188 84.265625 20.859375 86.242188 21.429688 Z M 86.242188 21.429688 "/>
<path style=" stroke:none;fill-rule:nonzero;fill:rgb(9.803922%,15.294118%,34.509805%);fill-opacity:1;" d="M 105.390625 20.960938 C 105.28125 21.496094 105.167969 22.035156 105.054688 22.570312 C 105.027344 22.703125 105.027344 22.703125 105 22.835938 C 104.714844 24.195312 104.417969 25.554688 104.109375 26.910156 C 104.050781 27.175781 103.988281 27.441406 103.929688 27.707031 C 103.746094 28.511719 103.566406 29.320312 103.378906 30.125 C 103.300781 30.464844 103.222656 30.808594 103.148438 31.152344 C 103.109375 31.3125 103.074219 31.472656 103.039062 31.632812 C 102.484375 33.464844 102.484375 33.464844 102.867188 35.246094 C 103.148438 35.414062 103.148438 35.414062 103.480469 35.515625 C 103.667969 35.582031 103.859375 35.648438 104.054688 35.714844 C 104.003906 36.101562 103.957031 36.488281 103.90625 36.886719 C 101.652344 36.886719 99.398438 36.886719 97.078125 36.886719 C 97.167969 36.03125 97.261719 35.222656 97.460938 34.386719 C 97.480469 34.289062 97.503906 34.1875 97.527344 34.085938 C 97.601562 33.761719 97.679688 33.441406 97.753906 33.117188 C 97.808594 32.890625 97.859375 32.664062 97.914062 32.4375 C 98.050781 31.84375 98.191406 31.25 98.328125 30.65625 C 98.550781 29.703125 98.773438 28.75 98.996094 27.796875 C 99.070312 27.464844 99.148438 27.136719 99.226562 26.804688 C 99.273438 26.601562 99.320312 26.394531 99.367188 26.191406 C 99.402344 26.054688 99.402344 26.054688 99.433594 25.914062 C 99.609375 25.15625 99.773438 24.402344 99.796875 23.632812 C 99.800781 23.515625 99.808594 23.394531 99.8125 23.273438 C 99.734375 22.863281 99.5625 22.738281 99.15625 22.484375 C 98.765625 22.335938 98.765625 22.335938 98.414062 22.25 C 98.464844 21.863281 98.511719 21.476562 98.5625 21.078125 C 100.839844 20.945312 103.109375 20.949219 105.390625 20.960938 Z M 105.390625 20.960938 "/>
<path style=" stroke:none;fill-rule:nonzero;fill:rgb(9.803922%,15.294118%,34.901962%);fill-opacity:1;" d="M 3.859375 11.476562 C 7.238281 11.476562 10.621094 11.476562 14.101562 11.476562 C 14.101562 13.058594 14.101562 14.644531 14.101562 16.277344 C 10.722656 16.277344 7.339844 16.277344 3.859375 16.277344 C 3.859375 14.691406 3.859375 13.109375 3.859375 11.476562 Z M 3.859375 11.476562 "/>
<path style=" stroke:none;fill-rule:nonzero;fill:rgb(9.803922%,15.686275%,34.901962%);fill-opacity:1;" d="M 23.75 35.011719 C 27.082031 35.011719 30.410156 35.011719 33.84375 35.011719 C 33.84375 36.597656 33.84375 38.179688 33.84375 39.8125 C 30.511719 39.8125 27.183594 39.8125 23.75 39.8125 C 23.75 38.226562 23.75 36.644531 23.75 35.011719 Z M 23.75 35.011719 "/>
<path style=" stroke:none;fill-rule:nonzero;fill:rgb(9.803922%,15.294118%,34.901962%);fill-opacity:1;" d="M 43.863281 9.234375 C 44.234375 9.25 44.234375 9.25 44.382812 9.367188 C 44.398438 9.546875 44.402344 9.726562 44.402344 9.902344 C 44.402344 10.019531 44.402344 10.136719 44.402344 10.257812 C 44.402344 10.386719 44.402344 10.515625 44.402344 10.648438 C 44.402344 10.785156 44.402344 10.921875 44.402344 11.0625 C 44.402344 11.441406 44.402344 11.824219 44.398438 12.203125 C 44.398438 12.613281 44.398438 13.019531 44.398438 13.429688 C 44.398438 14.140625 44.398438 14.851562 44.398438 15.558594 C 44.398438 16.585938 44.398438 17.613281 44.398438 18.640625 C 44.394531 20.304688 44.394531 21.96875 44.394531 23.632812 C 44.394531 25.253906 44.390625 26.871094 44.390625 28.488281 C 44.390625 28.589844 44.390625 28.6875 44.390625 28.789062 C 44.390625 29.289062 44.390625 29.789062 44.390625 30.289062 C 44.390625 34.441406 44.386719 38.589844 44.382812 42.738281 C 44.039062 42.738281 43.695312 42.738281 43.34375 42.738281 C 43.339844 38.492188 43.335938 34.242188 43.335938 29.992188 C 43.335938 29.492188 43.335938 28.988281 43.335938 28.488281 C 43.335938 28.386719 43.335938 28.289062 43.335938 28.1875 C 43.335938 26.566406 43.332031 24.949219 43.332031 23.332031 C 43.332031 21.675781 43.332031 20.015625 43.328125 18.355469 C 43.328125 17.332031 43.328125 16.308594 43.328125 15.285156 C 43.328125 14.582031 43.328125 13.882812 43.328125 13.179688 C 43.328125 12.773438 43.328125 12.371094 43.324219 11.964844 C 43.324219 11.527344 43.324219 11.085938 43.324219 10.648438 C 43.324219 10.519531 43.324219 10.390625 43.324219 10.257812 C 43.324219 10.140625 43.324219 10.023438 43.324219 9.902344 C 43.324219 9.800781 43.324219 9.699219 43.324219 9.597656 C 43.351562 9.246094 43.417969 9.253906 43.863281 9.234375 Z M 43.863281 9.234375 "/>
<path style=" stroke:none;fill-rule:nonzero;fill:rgb(9.803922%,15.294118%,34.509805%);fill-opacity:1;" d="M 102.125 14.871094 C 103.546875 14.871094 104.964844 14.871094 106.429688 14.871094 C 106.261719 16.453125 106.261719 16.453125 106.136719 16.976562 C 106.113281 17.078125 106.089844 17.179688 106.066406 17.285156 C 106.019531 17.464844 106.019531 17.464844 105.976562 17.652344 C 105.832031 18.246094 105.832031 18.246094 105.6875 18.851562 C 104.21875 18.851562 102.75 18.851562 101.234375 18.851562 C 101.355469 18.304688 101.472656 17.757812 101.597656 17.191406 C 101.632812 17.019531 101.671875 16.847656 101.710938 16.671875 C 101.753906 16.464844 101.753906 16.464844 101.800781 16.257812 C 101.828125 16.117188 101.859375 15.976562 101.890625 15.835938 C 101.964844 15.511719 102.042969 15.191406 102.125 14.871094 Z M 102.125 14.871094 "/>
</g>
</svg>
